<svg xmlns="http://www.w3.org/2000/svg" viewBox="513 182 391 391" width="391" height="391">
  <path fill="oklch(0.65 0.09 180)" d="M 670.33551242669 275.60708416370204 Q 670.33551242669 275.60708416370204 682.284615559009 272.4178344694122 694.233718691328 269.22858477512233 711.0850532575821 261.7281465082588 727.9363878238362 254.22770824139528 740.7432496722283 246.41921102876543 753.5501115206204 238.6107138161356 761.6491192655744 231.40111715648004 769.7481270105286 224.1915204968245 773.5192689089142 219.40665414127898 777.2904108072997 214.62178778573346 779.6035983205927 211.79002463769348 781.9167858338857 208.95826148965347 782.5598335491844 208.37986322776135 783.2028812644832 207.80146496586926 783.9656660822632 207.39377116499043 784.7284509000433 206.98607736411162 785.566639730856 206.77278320710857 786.4048285616686 206.55948905010553 787.2697058312849 206.55299120340487 788.1345831009013 206.54649335670422 788.9758821017751 206.74716947546148 789.8171811026489 206.94784559421873 790.5860054973211 207.344032372983 791.3548298919934 207.7402191517473 792.0064955705227 208.30889019632207 792.6581612490519 208.87756124089682 793.1547933715837 209.5856653634525 793.6514254941154 210.2937694860082 793.964159778354 211.1001516416717 794.2768940625925 211.9065337973352 794.3875543772442 212.76432701733168 794.4982146918959 213.62212023732818 794.4003694542738 214.48146953940818 794.3025242166517 215.34081884148821 794.0018601965636 216.1517788038385 793.7011961764755 216.96273876618883 793.2151879808956 217.67817635769484 792.7291797853158 218.39361394920087 787.376187662536 226.00654487451914 782.0231955397563 233.6194757998374 775.7535849332742 243.26598776928262 769.4839743267919 252.91249973872786 762.9720617546533 264.2620611767483 756.4601491825147 275.61162261476875 747.9180924134182 292.5226793935408 739.3760356443219 309.43373617231276 729.9852745372916 330.9409017140746 720.5945134302614 352.4480672558364 705.0080775754657 387.2980259925555 689.4216417206699 422.14798472927464 676.6538203829748 447.9316790268879 663.8859990452798 473.71537332450106 652.6348102611826 493.7232879658927 641.3836214770852 513.7312026072843 634.2866328067926 524.5727234133319 627.1896441365001 535.4142442193794 624.0571657993198 540.4842381509391 620.9246874621396 545.5542320824987 620.2418041206056 545.632198494182 619.5589207790717 545.7101649058653 619.0659302401766 546.2963408202384 618.5729397012816 546.8825167346114 617.9539900226741 547.3336743228028 617.3350403440666 547.7848319109944 616.6261049101486 548.0747498727812 615.9171694762305 548.3646678345681 615.1594516477305 548.4764961243893 614.4017338192305 548.5883244142107 613.6392721919422 548.5155635666079 612.8768105646537 548.4428027190049 612.1539194441791 548.1896815978591 611.4310283237045 547.9365604767135 610.7897221759305 547.5177904934787 610.1484160281565 547.0990205102441 609.6259675965233 546.5389405960218 609.1035191648901 545.9788606817996 608.7302931767915 545.3100227075196 608.357067188693 544.6411847332396 608.1547555560933 543.9024615933922 607.9524439234934 543.1637384535449 607.9328050079846 542.3980647717269 607.9131660924759 541.6323910899089 608.0773413087502 540.8842678564824 608.2415165250246 540.136144623056 608.5799640017985 539.4490527954983 608.9184114785725 538.7619609679408 606.6214877829711 533.7059191935982 604.3245640873698 528.6498774192555 601.4666860610046 515.7736925226137 598.6088080346393 502.89750762597185 597.4740576149015 492.5330629238232 596.3393071951639 482.16861822167454 605.4892747999359 470.48436903428683 614.6392424047079 458.8001198468991 628.0269300276664 453.5337736199226 641.4146176506248 448.2674273929461 656.803379051722 447.81677313409614 672.1921404528191 447.3661188752461 684.9733286626252 449.55222358280264 697.7545168724314 451.73832829035916 708.3291048470262 456.03448301068994 718.9036928216209 460.3306377310207 727.8442022635726 466.5161316376591 736.7847117055243 472.70162554429754 747.170856724402 463.7159137637292 757.5570017432798 454.7302019831609 762.319880574953 447.78999207717004 767.0827594066263 440.8497821711792 770.6067354917045 435.79218032700544 774.1307115767826 430.73457848283164 778.6830214383416 426.6256022838185 783.2353312999006 422.5166260848054 793.4990752729774 422.14878015780073 803.7628192460542 421.7809342307961 807.4530721143672 426.0704161276004 811.1433249826802 430.3598980244048 807.2832500617915 429.6237707253739 803.4231751409028 428.88764342634295 803.996924515418 427.44447123098996 804.5706738899331 426.00129903563703 805.5752086470286 424.81688177302067 806.5797434041242 423.63246451040436 807.9098884895607 422.8308109805764 809.2400335749971 422.0291574507484 810.7565224472052 421.69420098989775 812.2730113194132 421.3592445290471 813.8170671931584 421.5260551670448 815.3611230669037 421.6928658050424 816.7710828846139 422.3439784240563 818.1810427023241 422.99509104307015 819.3092832988917 424.06233398001245 820.4375238954593 425.1295769169547 821.1659181825971 426.50120955460284 821.8943124697349 427.8728421922509 822.1465973733023 429.40525423136717 822.3988822768695 430.9376662704835 822.148643500866 432.470413766055 821.8984047248624 434.0031612616265 821.1718423351923 435.37576514626085 820.4452799455222 436.74836903089516 819.3184652161777 437.8171173155389 818.1916504868333 438.8858656001826 816.7825612174272 439.5388600573114 815.373471948021 440.1918545144402 813.8296401570234 440.36072645201887 812.2858083660258 440.5295983895975 810.7688736494862 440.19666687118365 809.2519389329466 439.86373535276977 807.9207247561185 439.06385839622675 806.5895105792905 438.26398143968373 805.5833954178943 437.0809063735086 804.5772802564982 435.8978313073335 804.0016046335206 434.4554264032563 803.4259290105432 433.01302149917916 803.3409663156738 431.4623069314147 803.2560036208043 429.9115923636502 803.6706494706236 428.41492835679225 804.085295320443 426.9182643499343 804.9561361850192 425.6323520205819 805.8269770495955 424.3464396912295 807.0628356605278 423.40591439971365 808.29869427146 422.46538910819777 809.7701759059488 421.9687241008148 811.2416575404376 421.4720590934318 812.7946976829185 421.4712553275615 814.3477378253992 421.4704515616912 815.8197327629916 421.9655931918324 817.2917277005839 422.4607348219736 818.528559174753 423.3999803887458 819.7653906489221 424.339225955518 820.6375620778306 425.6242362001434 821.509733506739 426.90924644476877 821.9259283115493 428.40548045542533 822.3421231163595 429.9017144660819 822.2587655911432 431.4525161468864 822.1754080659268 433.003317827691 822.1757167415092 433.00191141021105 822.1760254170916 433.0005049927312 818.849583944165 438.96419339545736 815.5231424712385 444.92788179818353 808.4666868871286 444.94127771712203 801.4102313030188 444.95467363606053 797.607159039872 438.777397059735 793.8040867767253 432.6001204834095 789.5621978770033 435.97177517568025 785.3203089772813 439.343429867951 781.5604805210369 443.8917635901155 777.8006520647925 448.44009731228005 772.9638671491905 455.0555745643324 768.1270822335883 461.67105181638476 761.599103044534 471.6922690252307 755.0711238554796 481.71348623407664 749.5419355906204 485.00383504558704 744.0127473257611 488.2941838570974 737.2720243388576 484.9557403479818 730.5313013519541 481.61729683886625 722.6326129977697 475.9921867119647 714.7339246435853 470.36707658506316 705.2876721006173 466.4743348230986 695.8414195576493 462.5815930611341 684.1309299412047 460.5772296698386 672.4204403247602 458.5728662785431 658.8289987293483 458.81653297391085 645.2375571339365 459.0601996692786 634.1612884013686 462.96629097302116 623.0850196688006 466.87238227676374 615.3820301663598 475.26260732583364 607.6790406639188 483.65283237490354 609.1073396690751 491.875170457986 610.5356386742316 500.0975085410684 613.708465177029 512.8619018488766 616.8812916798264 525.6262951566848 618.2202799079455 535.6679640011732 619.5592681360646 545.7096328456615 619.0663362172259 546.2958580561574 618.573404298387 546.8820832666534 617.954499738633 547.3333027475569 617.335595178879 547.7845222284604 616.6266887403018 548.0745110823409 615.9177823017246 548.3644999362214 615.1600756598422 548.4764039972663 614.4023690179597 548.5883080583111 613.6399001183988 548.5156234572346 612.8774312188381 548.4429388561582 612.1545147898657 548.18989002539 611.4315983608935 547.9368411946218 610.7902503393278 547.5181353440958 610.1489023177621 547.0994294935696 609.6263978807499 546.5394018269908 609.1038934437377 545.9793741604119 608.7306005737079 545.3105735120748 608.3573077036781 544.6417728637379 608.1549221997759 543.9030699587473 607.9525366958738 543.1643670537568 607.9328212130952 542.3986953396586 607.9131057303166 541.6330236255606 608.0772061334469 540.8848839783532 608.2413065365772 540.1367443311458 608.5796853024763 539.449618662276 608.9180640683753 538.7624929934062 613.563321807784 534.1563917981538 618.2085795471925 529.5502906029013 625.0816538996 518.9956601892327 631.9547282520077 508.44102977556395 643.0199475222416 488.65930508678673 654.0851667924757 468.87758039800957 666.6870396416723 443.255618778015 679.2889124908688 417.63365715802047 694.748600481149 382.79267041649894 710.208288471429 347.95168367497735 719.5882280591544 326.100219101922 728.9681676468798 304.24875452886664 737.4529642186146 286.98825824278856 745.9377607903496 269.7277619567104 752.3495313145143 257.9682176079512 758.761301838679 246.20867325919195 764.8073289921108 236.1590610744267 770.8533561455428 226.10944888966145 776.3848351329348 217.5341255230935 781.9163141203267 208.95880215652554 782.5593039925841 208.380339592754 783.2022938648415 207.80187702898246 783.9650379094276 207.39410695166046 784.7277819540137 206.98633687433846 785.5659494512197 206.77295889951895 786.4041169484258 206.55958092469945 787.268993563933 206.55299659030447 788.1338701794404 206.54641225590947 788.9751892437196 206.7470042437634 789.8165083079987 206.94759623161733 790.5853723175046 207.34370612596132 791.3542363270105 207.73981602030534 792.0059588693858 208.308421895469 792.6576814117611 208.87702777063268 793.1543843422219 209.58508222643565 793.6510872726826 210.29313668223864 793.963902193573 211.09948756044187 794.2767171144633 211.9058384386451 794.3874632078835 212.76362058832117 794.4982093013037 213.62140273799724 794.4004499991009 214.48076182030428 794.3026906968981 215.3401209026113 794.0021077743095 216.15111092730876 793.7015248517207 216.96210095200624 793.2155882023299 217.67758714075455 792.7296515529391 218.39307332950284 789.9199774847857 220.79162502853086 787.1103034166323 223.19017672755885 782.4226439421448 228.09960899095464 777.7349844676571 233.00904125435042 768.9464761721192 241.07079718010596 760.1579678765812 249.1325531058615 746.7992071940362 257.65589014463546 733.440446511491 266.17922718340947 715.8651116517807 274.49036942191697 698.2897767920704 282.8015116604245 686.5295003467527 286.6609954866425 674.769223901435 290.52047931286046 673.8447328486029 290.67740583982305 672.920241795771 290.83433236678565 671.9850603265593 290.76544650993503 671.0498788573476 290.6965606530845 670.1583597626861 290.4058660616574 669.2668406680247 290.1151714702303 668.470799079583 289.6195633275387 667.6747574911412 289.1239551848471 667.0204593834414 288.45223825943026 666.3661612757417 287.7805213340135 665.8916344855453 286.9717358451372 665.4171076953489 286.16295035626086 665.1499317419978 285.26410295453917 664.8827557886466 284.3652555528175 664.8384589511027 283.4285872914706 664.7941621135586 282.4919190301237 664.9753189261012 281.5718691125103 665.1564757386436 280.6518191948969 665.5525573588161 279.8018609654571 665.9486389789886 278.95190273601725 666.5366251244168 278.22143580698105 667.1246112698449 277.4909688779449 667.87032815813 276.9224480215489 668.6160450464151 276.35392716515287 669.4761515769728 275.98039484028254 670.3362581075305 275.60686251541216 670.3358852671103 275.6069733395571 Z"></path>
</svg>
